<?xml version="1.0" encoding="iso-8859-1"?>
<!-- Generator: Adobe Illustrator 16.0.0, SVG Export Plug-In . SVG Version: 6.00 Build 0)  -->
<!DOCTYPE svg PUBLIC "-//W3C//DTD SVG 1.1//EN" "http://www.w3.org/Graphics/SVG/1.1/DTD/svg11.dtd">
<svg version="1.1" id="Capa_1" xmlns="http://www.w3.org/2000/svg" xmlns:xlink="http://www.w3.org/1999/xlink" x="0px" y="0px"
	 width="770.34px" height="770.34px" viewBox="0 0 770.34 770.34" style="enable-background:new 0 0 770.34 770.34;"
	 xml:space="preserve">
<g>
	<g>
		<polygon fill="#767e84" points="385.17,74.597 0,391.388 42.813,443.44 385.17,161.861 727.527,443.44 770.34,391.388 		"/>
		<path fill="#767e84" d="M385.226,226.764l-248.622,205.19v193.396v58.219v12.174h174.432V562.53c-0.074,0-0.146,0-0.222,0
			c0-16.764,0-31.58,0-49.834c0.073,0,0.146,0,0.222,0v-25.465c0-17.629,0-33.473,0-53.518c17.587,0,31.355,0,48.094,0h100.54
			v262.027h174.066v-11.424v-58.967V432.702L385.226,226.764L385.226,226.764z"/>
	</g>
</g>
<g>
</g>
<g>
</g>
<g>
</g>
<g>
</g>
<g>
</g>
<g>
</g>
<g>
</g>
<g>
</g>
<g>
</g>
<g>
</g>
<g>
</g>
<g>
</g>
<g>
</g>
<g>
</g>
<g>
</g>
</svg>
